<svg height="496pt" viewBox="0 0 496 496" width="496pt" xmlns="http://www.w3.org/2000/svg"><path d="m128 0v171.265625h16v-155.265625h335.359375c-3.902344 27.089844-27.207031 48-55.359375 48h-72.808594c-3.71875-18.230469-19.878906-32-39.191406-32-22.054688 0-40 17.945312-40 40v112c0 22.054688 17.945312 40 40 40s40-17.945312 40-40v-104h72c22.609375 0 42.792969-10.496094 56-26.847656v426.847656h-336v-24h-16v40h368v-496zm184 48c13.230469 0 24 10.769531 24 24s-10.769531 24-24 24-24-10.769531-24-24 10.769531-24 24-24zm24 55.792969v48.40625c-6.703125-5.070313-14.960938-8.199219-24-8.199219s-17.296875 3.128906-24 8.207031v-48.40625c6.703125 5.070313 14.960938 8.199219 24 8.199219s17.296875-3.128906 24-8.207031zm-24 104.207031c-13.230469 0-24-10.769531-24-24s10.769531-24 24-24 24 10.769531 24 24-10.769531 24-24 24zm0 0"/><path d="m320 72c0 4.417969-3.582031 8-8 8s-8-3.582031-8-8 3.582031-8 8-8 8 3.582031 8 8zm0 0"/><path d="m320 184c0 4.417969-3.582031 8-8 8s-8-3.582031-8-8 3.582031-8 8-8 8 3.582031 8 8zm0 0"/><path d="m284.3125 80h-84.3125c-39.695312 0-72-32.296875-72-72h16c0 30.871094 25.121094 56 56 56h84.3125zm0 0"/><path d="m464 464h-176v-112h176zm0 0" fill="#f0bc5e"/><path d="m120 472.945312-69.265625-34.632812-1.132813-1.511719c-31.984374-42.648437-49.601562-95.496093-49.601562-148.800781v-96h8c34.953125 0 68.472656-10.742188 96.921875-31.054688l15.078125-10.777343 15.078125 10.785156c28.449219 20.304687 61.96875 31.046875 96.921875 31.046875h8v96c0 53.304688-17.617188 106.152344-49.601562 148.800781l-1.132813 1.511719zm0 0" fill="#f0bc5e"/><path d="m168 289.472656v-33.472656c0-26.472656-21.527344-48-48-48s-48 21.527344-48 48v33.472656c-9.289062 3.3125-16 12.113282-16 22.527344v80c0 13.230469 10.769531 24 24 24h80c13.230469 0 24-10.769531 24-24v-80c0-10.414062-6.710938-19.214844-16-22.527344zm-48-65.472656c17.648438 0 32 14.351562 32 32v32h-64v-32c0-17.648438 14.351562-32 32-32zm48 168c0 4.414062-3.59375 8-8 8h-80c-4.40625 0-8-3.585938-8-8v-80c0-4.414062 3.59375-8 8-8h80c4.40625 0 8 3.585938 8 8zm0 0"/><path d="m120 320c-13.230469 0-24 10.769531-24 24 0 10.414062 6.710938 19.214844 16 22.527344v17.472656h16v-17.472656c9.289062-3.3125 16-12.113282 16-22.527344 0-13.230469-10.769531-24-24-24zm0 32c-4.40625 0-8-3.585938-8-8s3.59375-8 8-8 8 3.585938 8 8-3.59375 8-8 8zm0 0"/><path d="m320 384h112v16h-112zm0 0"/><path d="m320 416h80v16h-80zm0 0"/><path d="m416 416h16v16h-16zm0 0"/></svg>