<?xml version="1.0" encoding="iso-8859-1"?>
<!-- Generator: Adobe Illustrator 19.0.0, SVG Export Plug-In . SVG Version: 6.00 Build 0)  -->
<svg version="1.1" id="Layer_1" xmlns="http://www.w3.org/2000/svg" xmlns:xlink="http://www.w3.org/1999/xlink" x="0px" y="0px"
	 viewBox="0 0 512 512" style="enable-background:new 0 0 512 512;" xml:space="preserve">
<path style="fill:#fff;" d="M363.364,385.579h-18.316c-8.078,0-14.628-6.551-14.628-14.628s6.551-14.628,14.628-14.628h18.316
	c0.07,0,0.127-0.057,0.127-0.127v-153.58c0-0.07-0.057-0.127-0.127-0.127H148.636c-0.07,0-0.127,0.057-0.127,0.127v153.58
	c0,0.07,0.057,0.127,0.127,0.127h138.083c8.078,0,14.628,6.551,14.628,14.629s-6.551,14.628-14.628,14.628H148.636
	c-16.203,0-29.384-13.182-29.384-29.384v-153.58c0-16.203,13.182-29.384,29.384-29.384h214.727
	c16.203,0,29.384,13.182,29.384,29.384v153.58C392.747,372.397,379.567,385.579,363.364,385.579z"/>
<path style="fill:transparent;" d="M369.463,213.393l-105.64,80.547c-4.621,3.524-11.027,3.524-15.648,0l-105.64-80.547
	c-9.82-7.487-4.525-23.166,7.823-23.166h211.279C373.988,190.229,379.283,205.906,369.463,213.393z"/>
<g>
	<path style="fill:#fff;" d="M256,311.212c-5.998,0-11.925-2.003-16.695-5.638l-105.638-80.549
		c-9.545-7.279-13.231-19.33-9.39-30.702c3.841-11.374,14.08-18.723,26.086-18.723h211.279c12.004,0,22.244,7.348,26.086,18.723
		c3.84,11.372,0.154,23.425-9.392,30.702l-105.64,80.549C267.925,309.21,261.998,311.212,256,311.212z M155.467,204.857L256,281.511
		l100.533-76.653L155.467,204.857L155.467,204.857z"/>
	<path style="fill:#fff;" d="M427.883,512c-26.216,0-47.543-21.327-47.543-47.543v-10.971H131.659v10.971
		c0,26.216-21.328,47.543-47.543,47.543s-47.543-21.327-47.543-47.543V47.543C36.574,21.327,57.902,0,84.117,0h343.767
		c26.216,0,47.543,21.327,47.543,47.543v416.915C475.426,490.673,454.099,512,427.883,512z M117.031,424.229h277.938
		c8.078,0,14.628,6.551,14.628,14.628v25.6c0,10.083,8.202,18.286,18.286,18.286c10.083,0,18.286-8.202,18.286-18.286V47.543
		c0-10.083-8.202-18.286-18.286-18.286H84.117c-10.083,0-18.286,8.202-18.286,18.286v416.915c0,10.083,8.202,18.286,18.286,18.286
		s18.286-8.202,18.286-18.286v-25.6C102.402,430.778,108.952,424.229,117.031,424.229z"/>
	<path style="fill:#fff;" d="M377.415,117.028H134.584c-8.079,0-14.628-6.551-14.628-14.628s6.549-14.628,14.628-14.628h242.831
		c8.078,0,14.628,6.551,14.628,14.628S385.493,117.028,377.415,117.028z"/>
</g>
<g>
</g>
<g>
</g>
<g>
</g>
<g>
</g>
<g>
</g>
<g>
</g>
<g>
</g>
<g>
</g>
<g>
</g>
<g>
</g>
<g>
</g>
<g>
</g>
<g>
</g>
<g>
</g>
<g>
</g>
</svg>
