<?xml version="1.0" encoding="iso-8859-1"?>
<!-- Generator: Adobe Illustrator 19.0.0, SVG Export Plug-In . SVG Version: 6.00 Build 0)  -->
<svg version="1.1" id="Layer_1" xmlns="http://www.w3.org/2000/svg" xmlns:xlink="http://www.w3.org/1999/xlink" x="0px" y="0px"
	 viewBox="0 0 512 512" style="enable-background:new 0 0 512 512;" xml:space="preserve">
<g>
	<path style="fill:#fff;" d="M60.76,139.885c-7.812,0-14.144-6.332-14.144-14.144V60.76c0-7.812,6.332-14.144,14.144-14.144
		h64.98c7.812,0,14.144,6.332,14.144,14.144s-6.332,14.144-14.144,14.144H74.903v50.837
		C74.903,133.553,68.571,139.885,60.76,139.885z"/>
	<path style="fill:#fff;" d="M451.239,465.384H386.26c-7.81,0-14.144-6.332-14.144-14.144s6.334-14.144,14.144-14.144h50.835
		V386.26c0-7.812,6.334-14.144,14.144-14.144c7.81,0,14.144,6.332,14.144,14.144v64.98
		C465.383,459.05,459.05,465.384,451.239,465.384z"/>
	<path style="fill:#fff;" d="M497.856,512H14.144C6.332,512,0,505.668,0,497.856V14.144C0,6.332,6.332,0,14.144,0h483.713
		C505.667,0,512,6.332,512,14.144v483.713C512,505.668,505.667,512,497.856,512z M28.287,483.713h455.425V28.287H28.287V483.713z"/>
</g>
<g>
	<circle style="fill:transparent;" cx="256" cy="256" r="76.151"/>
	<path style="fill:transparent;" d="M123.053,123.053v111.943h59.754c9.121-31.837,38.425-55.146,73.193-55.146
		s64.072,23.309,73.193,55.146h59.754V123.053H123.053z"/>
</g>
<g>
	<path style="fill:#fff;" d="M403.091,234.994V123.053c0-7.812-6.334-14.144-14.144-14.144H123.053
		c-7.812,0-14.144,6.332-14.144,14.144v111.941v153.954c0,7.812,6.332,14.144,14.144,14.144h265.895
		c7.81,0,14.144-6.332,14.144-14.144v-86.273c0-7.812-6.334-14.144-14.144-14.144s-14.144,6.332-14.144,14.144v72.131H137.196
		V249.139h28.796c-0.171,2.269-0.287,4.551-0.287,6.863c0,49.788,40.506,90.294,90.294,90.294s90.294-40.506,90.294-90.294
		c0-2.311-0.116-4.594-0.287-6.863h42.94C396.759,249.138,403.091,242.805,403.091,234.994z M256,318.007
		c-34.191,0-62.007-27.816-62.007-62.007c0-6.066,0.891-11.924,2.522-17.47c0.171-0.583,0.349-1.163,0.537-1.737
		c0.109-0.334,0.222-0.663,0.337-0.994c0.181-0.523,0.362-1.047,0.556-1.563c0.148-0.395,0.307-0.784,0.464-1.174
		c0.182-0.458,0.361-0.921,0.554-1.373c0.339-0.795,0.696-1.58,1.068-2.356c0.184-0.385,0.382-0.761,0.573-1.14
		c0.223-0.443,0.446-0.885,0.679-1.322c0.221-0.413,0.451-0.82,0.682-1.229c0.215-0.382,0.433-0.761,0.655-1.137
		c0.259-0.437,0.523-0.871,0.793-1.303c0.194-0.31,0.393-0.618,0.593-0.924c0.313-0.479,0.627-0.959,0.953-1.43
		c0.117-0.17,0.24-0.337,0.359-0.505c9.865-13.944,25.263-23.47,42.49-25.791c0.332-0.044,0.665-0.089,0.999-0.127
		c0.518-0.061,1.038-0.115,1.559-0.163c0.528-0.048,1.058-0.088,1.59-0.122c0.39-0.025,0.779-0.055,1.17-0.074
		c0.953-0.044,1.911-0.074,2.875-0.074c0.965,0,1.922,0.03,2.875,0.074c0.392,0.018,0.781,0.048,1.17,0.074
		c0.532,0.034,1.061,0.074,1.588,0.122c0.52,0.048,1.041,0.102,1.559,0.163c0.334,0.038,0.666,0.083,0.999,0.127
		c17.204,2.318,32.584,11.823,42.451,25.736c0.137,0.194,0.279,0.385,0.413,0.58c0.314,0.453,0.615,0.914,0.917,1.376
		c0.214,0.327,0.426,0.655,0.632,0.986c0.259,0.413,0.513,0.83,0.762,1.25c0.236,0.397,0.465,0.799,0.693,1.204
		c0.219,0.388,0.438,0.775,0.648,1.168c0.252,0.47,0.491,0.946,0.73,1.424c0.175,0.348,0.356,0.692,0.525,1.044
		c0.378,0.788,0.738,1.584,1.082,2.39c0.177,0.414,0.339,0.839,0.508,1.257c0.173,0.429,0.347,0.857,0.511,1.291
		c0.185,0.495,0.359,0.996,0.532,1.496c0.123,0.355,0.245,0.709,0.362,1.066c0.181,0.557,0.355,1.119,0.52,1.683
		c1.636,5.553,2.53,11.422,2.53,17.499C318.007,290.191,290.191,318.007,256,318.007z M374.804,220.85H339.17
		c-0.112-0.263-0.239-0.516-0.352-0.778c-0.39-0.897-0.791-1.788-1.208-2.669c-0.235-0.494-0.479-0.98-0.721-1.468
		c-0.342-0.689-0.693-1.372-1.052-2.051c-0.27-0.509-0.54-1.017-0.819-1.52c-0.369-0.665-0.752-1.321-1.137-1.976
		c-0.494-0.84-1.001-1.669-1.52-2.491c-0.376-0.594-0.748-1.189-1.137-1.774c-0.443-0.666-0.904-1.32-1.365-1.974
		c-0.233-0.33-0.465-0.66-0.703-0.987c-0.53-0.733-1.069-1.457-1.621-2.172c-0.081-0.105-0.164-0.208-0.246-0.313
		c-14.319-18.411-35.588-31.14-59.84-34.223c-0.515-0.066-1.028-0.139-1.544-0.197c-0.617-0.068-1.238-0.122-1.858-0.177
		c-0.83-0.075-1.662-0.139-2.496-0.191c-0.487-0.03-0.972-0.061-1.46-0.083c-1.358-0.062-2.718-0.103-4.088-0.103
		c-1.369,0-2.73,0.041-4.087,0.103c-0.488,0.023-0.973,0.054-1.46,0.083c-0.834,0.052-1.666,0.116-2.496,0.191
		c-0.621,0.055-1.242,0.109-1.858,0.177c-0.516,0.058-1.03,0.13-1.544,0.197c-24.262,3.085-45.54,15.824-59.859,34.246
		c-0.074,0.093-0.149,0.187-0.221,0.28c-0.557,0.723-1.103,1.455-1.639,2.195c-0.228,0.314-0.453,0.632-0.676,0.95
		c-0.468,0.665-0.936,1.329-1.387,2.008c-0.356,0.535-0.697,1.081-1.042,1.624c-0.559,0.88-1.103,1.768-1.632,2.667
		c-0.375,0.638-0.748,1.276-1.107,1.924c-0.286,0.515-0.562,1.034-0.837,1.554c-0.351,0.662-0.692,1.329-1.027,2.003
		c-0.25,0.502-0.502,1.004-0.744,1.512c-0.402,0.846-0.785,1.703-1.161,2.563c-0.127,0.291-0.269,0.576-0.393,0.868h-35.632v-83.653
		h237.608V220.85z"/>
	<path style="fill:#fff;" d="M330.28,182.757h27.464c7.81,0,14.144-6.332,14.144-14.144s-6.333-14.144-14.144-14.144H330.28
		c-7.81,0-14.144,6.332-14.144,14.144S322.468,182.757,330.28,182.757z"/>
</g>
<g>
</g>
<g>
</g>
<g>
</g>
<g>
</g>
<g>
</g>
<g>
</g>
<g>
</g>
<g>
</g>
<g>
</g>
<g>
</g>
<g>
</g>
<g>
</g>
<g>
</g>
<g>
</g>
<g>
</g>
</svg>
