<?xml version="1.0" encoding="iso-8859-1"?>
<!-- Generator: Adobe Illustrator 19.0.0, SVG Export Plug-In . SVG Version: 6.00 Build 0)  -->
<svg version="1.1" id="Layer_1" xmlns="http://www.w3.org/2000/svg" xmlns:xlink="http://www.w3.org/1999/xlink" x="0px" y="0px"
	 viewBox="0 0 512 512" style="enable-background:new 0 0 512 512;" xml:space="preserve">
<g>
	<path style="fill:#fff;" d="M60.761,139.885c-7.81,0-14.144-6.332-14.144-14.144V60.76c0-7.812,6.334-14.144,14.144-14.144
		h64.979c7.81,0,14.144,6.332,14.144,14.144s-6.334,14.144-14.144,14.144H74.905v50.837
		C74.905,133.553,68.571,139.885,60.761,139.885z"/>
	<path style="fill:#fff;" d="M451.239,465.384H386.26c-7.81,0-14.144-6.332-14.144-14.144s6.334-14.144,14.144-14.144h50.835
		V386.26c0-7.812,6.334-14.144,14.144-14.144c7.81,0,14.144,6.332,14.144,14.144v64.98
		C465.383,459.05,459.05,465.384,451.239,465.384z"/>
	<path style="fill:#fff;" d="M497.856,512H14.144C6.334,512,0,505.668,0,497.856V14.144C0,6.332,6.334,0,14.144,0h483.713
		C505.667,0,512,6.332,512,14.144v483.713C512,505.668,505.667,512,497.856,512z M28.287,483.713h455.425V28.287H28.287V483.713z"/>
</g>
<path style="fill:transparent;" d="M381.284,287.704c14.801-74.123,30.453-161.767,28.651-164.857
	c-3.164-5.423-308.01,115.071-308.01,115.071l78.84,41.548c0,0,33.373,88.478,39.273,89.968
	c4.228,1.068,47.653-37.812,47.653-37.812l90.334,57.706 M274.07,247.408l-34.571,52.435l-21.93-52.487l139.558-61.366
	L274.07,247.408z"/>
<path style="fill:#fff;" d="M358.008,403.476c-2.605,0-5.242-0.72-7.601-2.226l-81.349-51.967
	c-4.039,3.534-9.193,7.995-14.501,12.465c-23.814,20.053-29.849,23.453-37.983,21.401c-7.707-1.946-11.574-8.652-17.986-22.43
	c-3.6-7.732-8.143-18.327-13.502-31.492c-6.475-15.907-12.636-31.87-15.644-39.737L95.33,250.432
	c-4.888-2.576-7.829-7.762-7.529-13.279c0.3-5.517,3.786-10.355,8.925-12.386c0.762-0.301,77.151-30.485,152.944-59.618
	c44.561-17.128,80.217-30.553,105.98-39.902c15.411-5.594,27.461-9.79,35.816-12.475c4.793-1.54,8.44-2.61,11.151-3.267
	c9.25-2.243,15.82-0.153,19.537,6.219c3.079,5.277,3.906,6.696-6.387,65.359c-5.58,31.809-13.287,72.703-20.61,109.391
	c-1.529,7.66-8.983,12.629-16.64,11.101c-7.66-1.53-12.63-8.98-11.101-16.64c11.96-59.901,21.954-115.395,26.255-143.17
	c-45.255,15.318-166.558,62.115-257.884,98.011l51.572,27.178c3.058,1.611,5.42,4.287,6.639,7.52
	c10.417,27.614,23.162,59.181,30.644,75.233c8.94-7.072,22.282-18.479,33.615-28.624c4.731-4.233,11.7-4.799,17.049-1.382
	l90.334,57.707c6.582,4.205,8.51,12.95,4.304,19.534C367.243,401.168,362.676,403.474,358.008,403.476z M239.501,313.986
	c-0.44,0-0.881-0.02-1.325-0.062c-5.203-0.488-9.714-3.806-11.728-8.629l-21.93-52.487c-2.973-7.113,0.3-15.296,7.356-18.399
	l139.558-61.366c6.592-2.899,14.313-0.38,17.929,5.853c3.615,6.233,1.967,14.185-3.826,18.467l-81.039,59.927l-33.191,50.34
	C248.674,311.62,244.225,313.986,239.501,313.986z M235.973,254.714l6.338,15.17l16.673-25.289L235.973,254.714z"/>
<g>
</g>
<g>
</g>
<g>
</g>
<g>
</g>
<g>
</g>
<g>
</g>
<g>
</g>
<g>
</g>
<g>
</g>
<g>
</g>
<g>
</g>
<g>
</g>
<g>
</g>
<g>
</g>
<g>
</g>
</svg>
