<?xml version="1.0" encoding="iso-8859-1"?>
<!-- Generator: Adobe Illustrator 19.0.0, SVG Export Plug-In . SVG Version: 6.00 Build 0)  -->
<svg version="1.1" id="Layer_1" xmlns="http://www.w3.org/2000/svg" xmlns:xlink="http://www.w3.org/1999/xlink" x="0px" y="0px"
	 viewBox="0 0 512 512" style="enable-background:new 0 0 512 512;" xml:space="preserve">
<g>
	<path style="fill:#507C5C;" d="M60.76,139.883c-7.812,0-14.144-6.334-14.144-14.144V60.761c0-7.81,6.332-14.144,14.144-14.144
		h64.98c7.812,0,14.144,6.334,14.144,14.144s-6.332,14.144-14.144,14.144H74.903v50.835
		C74.903,133.551,68.571,139.883,60.76,139.883z"/>
	<path style="fill:#507C5C;" d="M451.239,465.383H386.26c-7.81,0-14.144-6.334-14.144-14.144s6.334-14.144,14.144-14.144h50.835
		V386.26c0-7.81,6.334-14.144,14.144-14.144c7.81,0,14.144,6.334,14.144,14.144v64.979
		C465.383,459.05,459.05,465.383,451.239,465.383z"/>
	<path style="fill:#507C5C;" d="M497.856,512H14.144C6.332,512,0,505.667,0,497.856V14.144C0,6.334,6.332,0,14.144,0h483.713
		C505.667,0,512,6.334,512,14.144v483.713C512,505.667,505.667,512,497.856,512z M28.287,483.713h455.425V28.287H28.287V483.713z"/>
	<path style="fill:#507C5C;" d="M382.202,253.637c-7.486,0-13.735-5.874-14.114-13.435c-0.462-9.217-0.905-14.789-2.167-21.522
		c-4.625-25.647-17.057-45.961-36.969-60.481c-16.446-11.923-30.173-16.561-54.368-18.354c-7.79-0.577-13.637-7.36-13.059-15.151
		c0.577-7.792,7.369-13.643,15.151-13.059c29.432,2.181,48.108,8.601,68.913,23.685c26.02,18.972,42.213,45.289,48.153,78.243
		c1.536,8.189,2.083,14.93,2.598,25.221c0.39,7.803-5.616,14.444-13.417,14.834C382.68,253.631,382.44,253.637,382.202,253.637z"/>
	<path style="fill:#507C5C;" d="M338.647,250.881c-7.81,0-14.144-6.334-14.144-14.144c0-9.517-2.462-19.305-6.587-26.181
		c-0.144-0.24-0.281-0.485-0.41-0.734c-4.505-8.63-11.25-15.772-19.511-20.654c-7.509-4.346-19.31-7.823-29.258-8.588
		c-7.789-0.6-13.616-7.399-13.018-15.186c0.6-7.79,7.42-13.579,15.186-13.018c14.221,1.093,30.074,5.836,41.37,12.376
		c12.8,7.564,23.169,18.47,30.116,31.62c6.612,11.202,10.398,25.884,10.398,40.365C352.791,244.548,346.457,250.881,338.647,250.881
		z"/>
	<path style="fill:#507C5C;" d="M298.645,253.968c-7.81,0-14.144-6.334-14.144-14.144c0-3.356-0.842-6.843-2.195-9.1
		c-0.146-0.24-0.281-0.487-0.412-0.735c-1.581-3.031-3.94-5.532-6.823-7.234c-2.283-1.322-6.935-2.894-11.205-3.222
		c-7.787-0.6-13.616-7.399-13.016-15.187c0.6-7.787,7.399-13.586,15.187-13.016c7.977,0.615,16.912,3.301,23.317,7.011
		c7.417,4.383,13.401,10.65,17.425,18.203c3.875,6.631,6.007,14.879,6.007,23.282C312.788,247.635,306.456,253.968,298.645,253.968z
		"/>
</g>
<path style="fill:transparent;" d="M232.063,286.922c-9.082-8.126-18.162-18.162-22.941-26.287
	c-6.691-10.514-11.471-23.897-11.471-31.545c0-3.345-0.054-6.69,2.868-10.036c2.716-3.11,6.691-5.735,9.082-7.647
	c10.992-8.604,13.383-11.471,14.817-16.25s0-10.992-4.779-19.596c-8.604-15.773-32.501-45.883-41.104-51.619
	c-6.616-5.45-14.339-4.301-17.206-3.823c-4.301,0.956-9.56,4.301-21.508,12.905c-7.169,5.257-16.728,14.339-19.118,18.162
	c-5.257,9.082-4.779,16.25,1.434,33.935c13.038,37.834,46.361,83.163,49.228,86.51c27.243,35.369,58.788,64.045,96.068,87.464
	c33.047,20.316,54.009,28.2,60.7,31.067c14.385,5.527,32.501-0.956,36.802-3.823c0.956-0.478,4.301-2.868,5.257-3.823
	c5.257-4.301,10.992-10.992,15.773-17.206c3.346-4.301,5.735-8.604,7.169-11.949c2.406-5.476,3.283-15.835-3.345-22.464
	c-2.868-3.345-22.464-19.118-32.023-25.331c-7.169-4.779-18.162-11.47-22.941-13.861c-6.691-3.345-13.383-3.823-19.596-1.912
	c-1.434,0.478-2.39,0.956-3.345,1.434c-2.868,1.434-5.257,4.301-10.992,10.992c-3.823,4.779-7.169,9.082-7.647,9.082
	c0,0-0.478,0-0.478,0.478"/>
<path style="fill:#507C5C;" d="M340.773,406.423c-5.93,0-12.012-0.871-17.712-3.061c-0.167-0.065-0.332-0.133-0.498-0.204
	c-0.676-0.289-1.506-0.632-2.489-1.04c-8.857-3.667-29.594-12.255-60.048-30.977c-38.92-24.449-71.515-54.107-99.755-90.74
	c-5.012-6.21-38.087-51.735-51.507-90.674c-6.683-19.02-8.577-31.335-0.301-45.63c0.081-0.137,0.163-0.273,0.246-0.409
	c4.058-6.493,15.82-16.991,22.749-22.071c12.796-9.216,19.571-13.7,26.804-15.305c0.246-0.055,0.494-0.103,0.743-0.146
	c13.446-2.239,22.586,2.157,28.007,6.442c12.222,8.693,36.752,40.98,45.045,56.179c4.162,7.493,9.367,18.914,5.909,30.436
	c-2.803,9.345-8.39,14.511-19.59,23.279c-0.686,0.546-1.477,1.144-2.331,1.784c-1.407,1.057-3.1,2.327-4.242,3.42
	c-0.007,0.385-0.007,0.833-0.007,1.208v0.18c0,3.843,3.298,14.584,9.26,23.952c0.089,0.14,0.175,0.28,0.259,0.423
	c3.667,6.233,11.589,15.23,20.183,22.918c5.822,5.209,6.318,14.149,1.109,19.971c-5.208,5.82-14.151,6.319-19.971,1.109
	c-10.824-9.686-20.364-20.67-25.573-29.439c-6.768-10.702-13.552-26.828-13.552-38.933v-0.173
	c-0.001-4.153-0.003-11.879,6.356-19.166c3.015-3.452,6.592-6.137,9.205-8.096c0.622-0.468,1.201-0.898,1.696-1.294
	c0.04-0.031,0.079-0.062,0.119-0.093c8.555-6.696,9.64-8.243,9.918-8.97c-0.024-0.537-0.32-3.095-3.527-8.871
	c-8.396-15.388-30.929-42.902-36.588-46.719c-0.373-0.252-0.798-0.563-1.146-0.85c-1.189-0.98-2.764-1.242-5.359-0.871
	c-2.765,0.914-12.065,7.609-16.097,10.514c-6.349,4.656-13.731,11.934-15.367,14.159c-1.894,3.308-2.826,5.868,2.762,21.773
	c11.933,34.624,42.925,77.514,46.671,82.049c0.16,0.187,0.267,0.322,0.419,0.516c26.193,34.004,56.412,61.521,92.386,84.121
	c28.423,17.473,47.705,25.459,55.941,28.869c0.969,0.4,1.805,0.747,2.509,1.047c8.316,3.058,20.827-0.832,23.79-2.535
	c0.301-0.198,0.611-0.383,0.926-0.559c0.595-0.382,1.841-1.283,2.349-1.701c0.248-0.233,0.501-0.457,0.764-0.672
	c3.601-2.946,8.4-8.232,13.519-14.882c3.153-4.058,4.81-7.573,5.379-8.898c0.72-1.638,1.086-5.459-0.345-6.889
	c-0.214-0.215-0.423-0.437-0.622-0.665c-2.87-2.98-20.298-17.084-29.108-22.811c-0.045-0.03-0.091-0.059-0.136-0.089
	c-6.998-4.666-17.411-10.973-21.422-12.98c-3.147-1.574-6.076-1.931-8.949-1.092c-0.317,0.112-0.56,0.225-1.052,0.47
	c-1.014,0.856-3.54,3.803-6.206,6.918l-0.501,0.586l-1.495,1.871c-3.08,3.864-5.362,6.727-7.574,8.715
	c-2.556,2.535-6.073,4.099-9.957,4.099c-7.81,0-14.144-6.334-14.144-14.144c0-4.761,2.287-8.997,5.82-11.67
	c0.973-1.17,2.522-3.112,3.734-4.631l1.67-2.092c0.099-0.124,0.202-0.248,0.305-0.369l0.661-0.771
	c6.085-7.102,9.437-11.012,14.748-13.668c1.187-0.594,2.812-1.406,5.203-2.202c0.102-0.034,0.206-0.068,0.31-0.099
	c9.929-3.056,20.33-2.095,30.079,2.779c5.595,2.798,17.111,9.845,24.396,14.699c9.216,6.004,29.181,21.692,34.494,27.393
	c10.755,11.004,10.694,27.321,6.044,37.904c-2.092,4.882-5.288,10.23-8.952,14.94c-6.41,8.335-12.367,14.815-17.667,19.213
	c-1.881,1.68-4.986,3.939-7.178,5.223C366.427,402.111,353.972,406.423,340.773,406.423z M358.609,373.685
	c-0.099,0.049-0.222,0.11-0.362,0.188C358.367,373.808,358.488,373.746,358.609,373.685z M360.374,372.332
	c-0.069,0.065-0.13,0.126-0.184,0.18C360.251,372.45,360.314,372.391,360.374,372.332z M293.141,297.154c-0.001,0-0.003,0-0.004,0
	C293.14,297.154,293.14,297.154,293.141,297.154z M293.162,297.154c-0.003,0-0.007,0-0.01,0
	C293.157,297.154,293.16,297.154,293.162,297.154z M293.192,297.154c-0.006,0-0.013,0-0.018,0
	C293.179,297.154,293.186,297.154,293.192,297.154z M293.215,297.154c-0.004,0-0.01,0-0.016,0
	C293.203,297.154,293.211,297.154,293.215,297.154z M293.242,297.154c-0.007,0-0.014,0-0.021,0
	C293.228,297.154,293.235,297.154,293.242,297.154z"/>
<g>
</g>
<g>
</g>
<g>
</g>
<g>
</g>
<g>
</g>
<g>
</g>
<g>
</g>
<g>
</g>
<g>
</g>
<g>
</g>
<g>
</g>
<g>
</g>
<g>
</g>
<g>
</g>
<g>
</g>
</svg>
