<?xml version="1.0" encoding="iso-8859-1"?>
<!-- Generator: Adobe Illustrator 19.0.0, SVG Export Plug-In . SVG Version: 6.00 Build 0)  -->
<svg version="1.1" id="Layer_1" xmlns="http://www.w3.org/2000/svg" xmlns:xlink="http://www.w3.org/1999/xlink" x="0px" y="0px"
	 viewBox="0 0 512 512" style="enable-background:new 0 0 512 512;" xml:space="preserve">
<g>
	<path style="fill:#fff;" d="M60.761,139.885c-7.81,0-14.144-6.332-14.144-14.144V60.76c0-7.812,6.334-14.144,14.144-14.144
		h64.979c7.81,0,14.144,6.332,14.144,14.144s-6.334,14.144-14.144,14.144H74.905v50.837
		C74.905,133.553,68.571,139.885,60.761,139.885z"/>
	<path style="fill:#fff;" d="M451.239,465.384H386.26c-7.81,0-14.144-6.332-14.144-14.144s6.334-14.144,14.144-14.144h50.835
		V386.26c0-7.812,6.334-14.144,14.144-14.144c7.81,0,14.144,6.332,14.144,14.144v64.98
		C465.383,459.05,459.05,465.384,451.239,465.384z"/>
	<path style="fill:#fff;" d="M497.856,512H14.144C6.334,512,0,505.668,0,497.856V14.144C0,6.332,6.334,0,14.144,0h483.713
		C505.667,0,512,6.332,512,14.144v483.713C512,505.668,505.667,512,497.856,512z M28.287,483.713h455.425V28.287H28.287V483.713z"/>
</g>
<path style="fill:transparent;" d="M352.668,272.299c3.462,4.814,6.789,9.802,10.4,14.387c8.612,10.977,52.839,73.439,52.839,73.439
	c-16.227,0.057-58.156,0-74.383,0.057c0,0-31.85-31.453-39.946-40.925c-2.501-2.967-5.199-5.703-7.799-8.441
	c-1.392-1.519-3.117-1.849-4.854-1.791c-2.403,0.058-4.386,1.276-5.298,3.854c-0.863,2.293-12.424,47.245-12.424,47.245
	c-14.156,0.388-40.295,0.617-54.44-0.444c0,0-41.423-60.895-54.815-82.466c-17.421-28.057-65.853-116.696-65.853-116.696
	c10.567,0.011,40.485,0.031,52.449-0.062c0,0,72.165,109.227,72.165,108.511c0-19.316,0-62.441-0.05-81.743
	c0-1.519,0-3.024-0.099-4.543c-0.283-3.41-1.873-5.431-4.817-6.104c-1.342-0.272-2.686-0.444-4.041-0.659
	c-4.14-0.617-5.865-2.636-6.297-7.509c-0.628-7.28,2.354-12.982,8.28-15.562c2.501-1.061,5.138-1.346,7.837-1.29
	c13.097,0,40.592,0,53.688,0c0,0,0.502,43.719,0.502,55.428c0,12.424,0,45.961,0,58.443l65.939-104.971
	c19.06,0.058,50.774,0.058,69.836,0c0,0-16.414,28.444-31.29,54.265"/>
<path style="fill:#fff;" d="M246.22,374.59c-10.905,0-22.392-0.197-30.514-0.805c-4.298-0.322-8.215-2.587-10.637-6.15
	c-1.697-2.496-41.741-61.386-55.135-82.96c-17.429-28.068-64.266-113.742-66.25-117.375c-2.396-4.385-2.301-9.708,0.25-14.004
	c2.55-4.291,7.171-6.922,12.162-6.922c0.006,0,0.01,0,0.016,0c9.205,0.01,40.176,0.033,52.323-0.061c0.035,0,0.074,0,0.11,0
	c4.747,0,9.181,2.383,11.801,6.348c13.998,21.189,31.83,48.134,46.212,69.796c-0.007-12.62-0.018-24.783-0.037-33.212
	c-5.612-1.601-14.022-6.244-15.202-19.588c-1.156-13.384,5.253-24.783,16.721-29.777c4.155-1.762,8.544-2.542,13.616-2.465h53.555
	c7.748,0,14.055,6.233,14.142,13.981c0.021,1.789,0.504,43.934,0.504,55.59v9.339l39.82-63.39c2.588-4.12,7.113-6.621,11.977-6.621
	c0.016,0,0.03,0,0.042,0c18.903,0.058,50.845,0.058,69.748,0c0.014,0,0.03,0,0.042,0c5.044,0,9.707,2.686,12.237,7.052
	c2.537,4.377,2.542,9.777,0.013,14.161c0,0-16.411,28.44-31.283,54.256c-3.898,6.768-12.544,9.094-19.316,5.195
	c-6.768-3.899-9.094-12.548-5.195-19.316c6.56-11.384,13.415-23.278,19.035-33.021c-12.725,0.007-26.384,0.001-37.517-0.021
	l-61.771,98.331c-3.353,5.336-9.834,7.813-15.89,6.068c-6.058-1.744-10.229-7.287-10.229-13.591v-58.443
	c0-7.3-0.201-27.443-0.348-41.282h-35.478c5.087,3.387,8.348,9.001,8.913,15.811c0.007,0.086,0.014,0.173,0.02,0.259
	c0.127,1.974,0.127,3.823,0.127,5.454c0.05,19.285,0.05,63.054,0.05,81.743c0,6.244-4.096,11.752-10.075,13.548
	c-3.691,1.11-10.749,1.713-16.569-6.686c-0.569-0.822-1.392-2.03-2.434-3.568c-2.011-2.976-4.863-7.234-8.274-12.346
	c-6.79-10.178-15.808-23.758-24.812-37.343c-12.693-19.148-25.36-38.304-31.726-47.933c-6.109,0.021-13.674,0.03-20.954,0.033
	c15.398,27.928,42.138,76.053,53.954,95.083c10.68,17.199,39.943,60.509,50.572,76.193c10.413,0.419,24.309,0.417,35.65,0.255
	c8.339-32.296,9.711-36.892,10.107-38.035l0,0c2.824-7.991,9.834-13.08,18.296-13.282c7.691-0.25,12.676,3.221,15.494,6.242
	l1.426,1.494c2.252,2.352,4.578,4.785,6.885,7.52c5.444,6.369,24.35,25.361,34.938,35.884c8.387-0.014,19.995-0.02,31.61-0.014
	c3.221,0,6.442,0,9.589,0c-13.523-18.985-31.557-44.179-36.588-50.593c-2.706-3.437-5.208-6.997-7.626-10.441
	c-1.038-1.478-2.078-2.957-3.129-4.42c-4.561-6.341-3.117-15.179,3.223-19.74c6.346-4.56,15.182-3.116,19.74,3.225
	c1.113,1.547,2.212,3.112,3.311,4.676c2.303,3.277,4.476,6.372,6.72,9.22c8.741,11.14,51.455,71.454,53.268,74.015
	c3.051,4.308,3.448,9.957,1.031,14.649c-2.417,4.693-7.246,7.649-12.524,7.667c-8.165,0.028-22.821-0.011-37.466,0.028
	c-14.445,0-28.854,0-36.916,0.03c-0.017,0-0.033,0-0.049,0c-3.72,0-7.29-1.465-9.937-4.08c-1.209-1.195-27.495-27.167-38.278-39.004
	c-2.369,9.031-5.506,21.131-8.406,32.406c-1.571,6.112-7.003,10.442-13.311,10.615C265.611,374.426,256.156,374.59,246.22,374.59z
	 M283.354,320.375c0.004,0.004,0.01,0.01,0.014,0.016C283.364,320.385,283.358,320.38,283.354,320.375z"/>
<g>
</g>
<g>
</g>
<g>
</g>
<g>
</g>
<g>
</g>
<g>
</g>
<g>
</g>
<g>
</g>
<g>
</g>
<g>
</g>
<g>
</g>
<g>
</g>
<g>
</g>
<g>
</g>
<g>
</g>
</svg>
